<svg width="169" height="52" viewBox="0 0 169 52" fill="none" xmlns="http://www.w3.org/2000/svg">
<path d="M21.8865 34.439C17.1457 33.9158 13.5 30.093 13.5 25.5C13.5 21.0033 16.9944 17.2449 21.5897 16.5983C21.1927 17.0955 20.7476 17.7597 20.322 18.5532C19.3736 20.3213 18.5 22.7729 18.5 25.5C18.5 28.2459 19.5445 30.7098 20.5678 32.4689C21.0406 33.2817 21.5133 33.9517 21.8865 34.439Z" stroke="#F1E0A8"/>
<path d="M147.08 35.4393C151.818 34.903 155.5 30.8814 155.5 26C155.5 21.22 151.97 17.2645 147.374 16.5987C147.781 17.1266 148.242 17.845 148.683 18.7093C149.63 20.5671 150.5 23.1402 150.5 26C150.5 28.8778 149.46 31.4632 148.438 33.3129C147.948 34.1985 147.459 34.9229 147.08 35.4393Z" stroke="#F1E0A8"/>
<path d="M52.5 25.5V25.5307V25.5614V25.5921V25.6228V25.6534V25.684V25.7146V25.7452V25.7757V25.8063V25.8368V25.8672V25.8977V25.9281V25.9585V25.9889V26.0192V26.0495V26.0798V26.1101V26.1404V26.1706V26.2008V26.2309V26.2611V26.2912V26.3213V26.3513V26.3814V26.4114V26.4414V26.4713V26.5012V26.5311V26.561V26.5909V26.6207V26.6505V26.6802V26.71V26.7397V26.7693V26.799V26.8286V26.8582V26.8877V26.9173V26.9468V26.9762V27.0057V27.0351V27.0644V27.0938V27.1231V27.1524V27.1817V27.2109V27.2401V27.2692V27.2984V27.3275V27.3565V27.3856V27.4146V27.4436V27.4725V27.5014V27.5303V27.5591V27.5879V27.6167V27.6455V27.6742V27.7028V27.7315V27.7601V27.7887V27.8172V27.8457V27.8742V27.9026V27.931V27.9594V27.9878V28.0161V28.0443V28.0725V28.1007V28.1289V28.157V28.1851V28.2132V28.2412V28.2692V28.2971V28.325V28.3529V28.3807V28.4085V28.4363V28.464V28.4917V28.5193V28.5469V28.5745V28.602V28.6295V28.657V28.6844V28.7118V28.7391V28.7664V28.7937V28.8209V28.8481V28.8752V28.9023V28.9294V28.9564V28.9834V29.0104V29.0373V29.0641V29.0909V29.1177V29.1445V29.1712V29.1978V29.2244V29.251V29.2776V29.304V29.3305V29.3569V29.3833V29.4096V29.4359V29.4621V29.4883V29.5145V29.5406V29.5666V29.5927V29.6186V29.6446V29.6705V29.6963V29.7221V29.7479V29.7736V29.7993V29.8249V29.8505V29.876V29.9015V29.9269V29.9523V29.9777V30.003V30.0283V30.0535V30.0787V30.1038V30.1289V30.1539V30.1789V30.2038V30.2287V30.2535V30.2783V30.3031V30.3278V30.3524V30.377V30.4016V30.4261V30.4506V30.475V30.4993V30.5236V30.5479V30.5721V30.5963V30.6204V30.6445V30.6685V30.6925V30.7164V30.7402V30.7641V30.7878V30.8115V30.8352V30.8588V30.8824V30.9059V30.9294V30.9528V30.9761V30.9994V31.0227V31.0459V31.069V31.0921V31.1152V31.1382V31.1611V31.184V31.2068V31.2296V31.2523V31.275V31.2976V31.3202V31.3427V31.3652V31.3876V31.4099V31.4322V31.4545V31.4767V31.4988V31.5209V31.5429V31.5648V31.5868V31.6086V31.6304V31.6522V31.6738V31.6955V31.717V31.7386V31.76V31.7814V31.8028V31.8241V31.8453V31.8665V31.8876V31.9086V31.9296V31.9506V31.9715V31.9923V32.0131V32.0338V32.0544V32.075V32.0956V32.116V32.1364V32.1568V32.1771V32.1973V32.2175V32.2376V32.2577V32.2777V32.2976V32.3175V32.3373V32.3571V32.3768V32.3964V32.416V32.4355V32.4549V32.4743V32.4936V32.5129V32.5321V32.5512V32.5703V32.5893V32.6082V32.6271V32.6459V32.6647V32.6834V32.702V32.7206V32.7391V32.7575V32.7759V32.7942V32.8125V32.8307V32.8488V32.8668V32.8848V32.9027V32.9206V32.9384V32.9561V32.9738V32.9914V33.0089V33.0264V33.0438V33.0611V33.0784V33.0956V33.1127V33.1297V33.1467V33.1637V33.1805V33.1973V33.2141V33.2307V33.2473V33.2638V33.2803V33.2967V33.313V33.3292V33.3454V33.3615V33.3776V33.3935V33.4094V33.4253V33.441V33.4567V33.4723V33.4879V33.5034V33.5188V33.5341V33.5494V33.5646V33.5797V33.5948V33.6097V33.6247V33.6395V33.6543V33.669V33.6836V33.6981V33.7126V33.727V33.7414V33.7556V33.7698V33.7839V33.798V33.8119V33.8258V33.8397V33.8534V33.8671V33.8807V33.8942V33.9076V33.921V33.9343V33.9476V33.9607V33.9738V33.9868V33.9997V34.0126V34.0253V34.038V34.0507V34.0632V34.0757V34.0881V34.1004V34.1126V34.1248V34.1369V34.1489V34.1608V34.1727V34.1844V34.1961V34.2077V34.2193V34.2308V34.2421V34.2534V34.2647V34.2758V34.2869V34.2979V34.3088V34.3196V34.3304V34.341V34.3516V34.3622V34.3726V34.3829V34.3932V34.4034V34.4135V34.4235V34.4335V34.4434V34.4531V34.4629V34.4725V34.482V34.4846C48.0603 34.211 44.5 30.3168 44.5 25.5C44.5 20.6832 48.0603 16.789 52.5 16.5154V16.518V16.5275V16.5372V16.5469V16.5566V16.5665V16.5765V16.5865V16.5966V16.6068V16.6171V16.6274V16.6378V16.6484V16.659V16.6696V16.6804V16.6912V16.7021V16.7131V16.7242V16.7353V16.7466V16.7579V16.7692V16.7807V16.7923V16.8039V16.8156V16.8273V16.8392V16.8511V16.8631V16.8752V16.8874V16.8996V16.9119V16.9243V16.9368V16.9493V16.962V16.9747V16.9874V17.0003V17.0132V17.0262V17.0393V17.0524V17.0657V17.079V17.0923V17.1058V17.1193V17.1329V17.1466V17.1603V17.1742V17.1881V17.202V17.2161V17.2302V17.2444V17.2586V17.273V17.2874V17.3019V17.3164V17.331V17.3457V17.3605V17.3753V17.3903V17.4052V17.4203V17.4354V17.4506V17.4659V17.4812V17.4966V17.5121V17.5277V17.5433V17.559V17.5747V17.5906V17.6065V17.6225V17.6385V17.6546V17.6708V17.687V17.7033V17.7197V17.7362V17.7527V17.7693V17.7859V17.8027V17.8195V17.8363V17.8533V17.8703V17.8873V17.9044V17.9216V17.9389V17.9562V17.9736V17.9911V18.0086V18.0262V18.0439V18.0616V18.0794V18.0973V18.1152V18.1332V18.1512V18.1693V18.1875V18.2058V18.2241V18.2425V18.2609V18.2794V18.298V18.3166V18.3353V18.3541V18.3729V18.3918V18.4107V18.4297V18.4488V18.4679V18.4871V18.5064V18.5257V18.5451V18.5645V18.584V18.6036V18.6232V18.6429V18.6627V18.6825V18.7024V18.7223V18.7423V18.7624V18.7825V18.8027V18.8229V18.8432V18.8636V18.884V18.9044V18.925V18.9456V18.9662V18.9869V19.0077V19.0285V19.0494V19.0704V19.0914V19.1124V19.1335V19.1547V19.1759V19.1972V19.2186V19.24V19.2614V19.283V19.3045V19.3262V19.3478V19.3696V19.3914V19.4132V19.4352V19.4571V19.4791V19.5012V19.5233V19.5455V19.5678V19.5901V19.6124V19.6348V19.6573V19.6798V19.7024V19.725V19.7477V19.7704V19.7932V19.816V19.8389V19.8618V19.8848V19.9079V19.931V19.9541V19.9773V20.0006V20.0239V20.0472V20.0706V20.0941V20.1176V20.1412V20.1648V20.1885V20.2122V20.2359V20.2598V20.2836V20.3075V20.3315V20.3555V20.3796V20.4037V20.4279V20.4521V20.4764V20.5007V20.525V20.5494V20.5739V20.5984V20.623V20.6476V20.6722V20.6969V20.7217V20.7465V20.7713V20.7962V20.8211V20.8461V20.8711V20.8962V20.9214V20.9465V20.9717V20.997V21.0223V21.0477V21.0731V21.0985V21.124V21.1495V21.1751V21.2007V21.2264V21.2521V21.2779V21.3037V21.3295V21.3554V21.3814V21.4073V21.4334V21.4594V21.4855V21.5117V21.5379V21.5641V21.5904V21.6167V21.6431V21.6695V21.696V21.7224V21.749V21.7756V21.8022V21.8288V21.8555V21.8823V21.9091V21.9359V21.9627V21.9896V22.0166V22.0436V22.0706V22.0977V22.1248V22.1519V22.1791V22.2063V22.2336V22.2609V22.2882V22.3156V22.343V22.3705V22.398V22.4255V22.4531V22.4807V22.5083V22.536V22.5637V22.5915V22.6193V22.6471V22.675V22.7029V22.7308V22.7588V22.7868V22.8149V22.843V22.8711V22.8993V22.9275V22.9557V22.9839V23.0123V23.0406V23.069V23.0974V23.1258V23.1543V23.1828V23.2113V23.2399V23.2685V23.2972V23.3258V23.3545V23.3833V23.4121V23.4409V23.4697V23.4986V23.5275V23.5564V23.5854V23.6144V23.6435V23.6725V23.7016V23.7308V23.7599V23.7891V23.8183V23.8476V23.8769V23.9062V23.9356V23.9649V23.9943V24.0238V24.0532V24.0827V24.1123V24.1418V24.1714V24.201V24.2307V24.2603V24.29V24.3198V24.3495V24.3793V24.4091V24.439V24.4689V24.4988V24.5287V24.5586V24.5886V24.6186V24.6487V24.6787V24.7088V24.7389V24.7691V24.7992V24.8294V24.8596V24.8899V24.9202V24.9505V24.9808V25.0111V25.0415V25.0719V25.1023V25.1328V25.1632V25.1937V25.2243V25.2548V25.2854V25.316V25.3466V25.3772V25.4079V25.4386V25.4693V25.5Z" stroke="#F1E0A8"/>
<path d="M116.5 25.5V25.5307V25.5614V25.5921V25.6228V25.6534V25.684V25.7146V25.7452V25.7757V25.8063V25.8368V25.8672V25.8977V25.9281V25.9585V25.9889V26.0192V26.0495V26.0798V26.1101V26.1404V26.1706V26.2008V26.2309V26.2611V26.2912V26.3213V26.3513V26.3814V26.4114V26.4414V26.4713V26.5012V26.5311V26.561V26.5909V26.6207V26.6505V26.6802V26.71V26.7397V26.7693V26.799V26.8286V26.8582V26.8877V26.9173V26.9468V26.9762V27.0057V27.0351V27.0644V27.0938V27.1231V27.1524V27.1817V27.2109V27.2401V27.2692V27.2984V27.3275V27.3565V27.3856V27.4146V27.4436V27.4725V27.5014V27.5303V27.5591V27.5879V27.6167V27.6455V27.6742V27.7028V27.7315V27.7601V27.7887V27.8172V27.8457V27.8742V27.9026V27.931V27.9594V27.9878V28.0161V28.0443V28.0725V28.1007V28.1289V28.157V28.1851V28.2132V28.2412V28.2692V28.2971V28.325V28.3529V28.3807V28.4085V28.4363V28.464V28.4917V28.5193V28.5469V28.5745V28.602V28.6295V28.657V28.6844V28.7118V28.7391V28.7664V28.7937V28.8209V28.8481V28.8752V28.9023V28.9294V28.9564V28.9834V29.0104V29.0373V29.0641V29.0909V29.1177V29.1445V29.1712V29.1978V29.2244V29.251V29.2776V29.304V29.3305V29.3569V29.3833V29.4096V29.4359V29.4621V29.4883V29.5145V29.5406V29.5666V29.5927V29.6186V29.6446V29.6705V29.6963V29.7221V29.7479V29.7736V29.7993V29.8249V29.8505V29.876V29.9015V29.9269V29.9523V29.9777V30.003V30.0283V30.0535V30.0787V30.1038V30.1289V30.1539V30.1789V30.2038V30.2287V30.2535V30.2783V30.3031V30.3278V30.3524V30.377V30.4016V30.4261V30.4506V30.475V30.4993V30.5236V30.5479V30.5721V30.5963V30.6204V30.6445V30.6685V30.6925V30.7164V30.7402V30.7641V30.7878V30.8115V30.8352V30.8588V30.8824V30.9059V30.9294V30.9528V30.9761V30.9994V31.0227V31.0459V31.069V31.0921V31.1152V31.1382V31.1611V31.184V31.2068V31.2296V31.2523V31.275V31.2976V31.3202V31.3427V31.3652V31.3876V31.4099V31.4322V31.4545V31.4767V31.4988V31.5209V31.5429V31.5648V31.5868V31.6086V31.6304V31.6522V31.6738V31.6955V31.717V31.7386V31.76V31.7814V31.8028V31.8241V31.8453V31.8665V31.8876V31.9086V31.9296V31.9506V31.9715V31.9923V32.0131V32.0338V32.0544V32.075V32.0956V32.116V32.1364V32.1568V32.1771V32.1973V32.2175V32.2376V32.2577V32.2777V32.2976V32.3175V32.3373V32.3571V32.3768V32.3964V32.416V32.4355V32.4549V32.4743V32.4936V32.5129V32.5321V32.5512V32.5703V32.5893V32.6082V32.6271V32.6459V32.6647V32.6834V32.702V32.7206V32.7391V32.7575V32.7759V32.7942V32.8125V32.8307V32.8488V32.8668V32.8848V32.9027V32.9206V32.9384V32.9561V32.9738V32.9914V33.0089V33.0264V33.0438V33.0611V33.0784V33.0956V33.1127V33.1297V33.1467V33.1637V33.1805V33.1973V33.2141V33.2307V33.2473V33.2638V33.2803V33.2967V33.313V33.3292V33.3454V33.3615V33.3776V33.3935V33.4094V33.4253V33.441V33.4567V33.4723V33.4879V33.5034V33.5188V33.5341V33.5494V33.5646V33.5797V33.5948V33.6097V33.6247V33.6395V33.6543V33.669V33.6836V33.6981V33.7126V33.727V33.7414V33.7556V33.7698V33.7839V33.798V33.8119V33.8258V33.8397V33.8534V33.8671V33.8807V33.8942V33.9076V33.921V33.9343V33.9476V33.9607V33.9738V33.9868V33.9997V34.0126V34.0253V34.038V34.0507V34.0632V34.0757V34.0881V34.1004V34.1126V34.1248V34.1369V34.1489V34.1608V34.1727V34.1844V34.1961V34.2077V34.2193V34.2308V34.2421V34.2534V34.2647V34.2758V34.2869V34.2979V34.3088V34.3196V34.3304V34.341V34.3516V34.3622V34.3726V34.3829V34.3932V34.4034V34.4135V34.4235V34.4335V34.4434V34.4531V34.4629V34.4725V34.482V34.4878C121.536 34.2411 125.5 30.2893 125.5 25.5C125.5 20.7107 121.536 16.7589 116.5 16.5122V16.518V16.5275V16.5372V16.5469V16.5566V16.5665V16.5765V16.5865V16.5966V16.6068V16.6171V16.6274V16.6378V16.6484V16.659V16.6696V16.6804V16.6912V16.7021V16.7131V16.7242V16.7353V16.7466V16.7579V16.7692V16.7807V16.7923V16.8039V16.8156V16.8273V16.8392V16.8511V16.8631V16.8752V16.8874V16.8996V16.9119V16.9243V16.9368V16.9493V16.962V16.9747V16.9874V17.0003V17.0132V17.0262V17.0393V17.0524V17.0657V17.079V17.0923V17.1058V17.1193V17.1329V17.1466V17.1603V17.1742V17.1881V17.202V17.2161V17.2302V17.2444V17.2586V17.273V17.2874V17.3019V17.3164V17.331V17.3457V17.3605V17.3753V17.3903V17.4052V17.4203V17.4354V17.4506V17.4659V17.4812V17.4966V17.5121V17.5277V17.5433V17.559V17.5747V17.5906V17.6065V17.6225V17.6385V17.6546V17.6708V17.687V17.7033V17.7197V17.7362V17.7527V17.7693V17.7859V17.8027V17.8195V17.8363V17.8533V17.8703V17.8873V17.9044V17.9216V17.9389V17.9562V17.9736V17.9911V18.0086V18.0262V18.0439V18.0616V18.0794V18.0973V18.1152V18.1332V18.1512V18.1693V18.1875V18.2058V18.2241V18.2425V18.2609V18.2794V18.298V18.3166V18.3353V18.3541V18.3729V18.3918V18.4107V18.4297V18.4488V18.4679V18.4871V18.5064V18.5257V18.5451V18.5645V18.584V18.6036V18.6232V18.6429V18.6627V18.6825V18.7024V18.7223V18.7423V18.7624V18.7825V18.8027V18.8229V18.8432V18.8636V18.884V18.9044V18.925V18.9456V18.9662V18.9869V19.0077V19.0285V19.0494V19.0704V19.0914V19.1124V19.1335V19.1547V19.1759V19.1972V19.2186V19.24V19.2614V19.283V19.3045V19.3262V19.3478V19.3696V19.3914V19.4132V19.4352V19.4571V19.4791V19.5012V19.5233V19.5455V19.5678V19.5901V19.6124V19.6348V19.6573V19.6798V19.7024V19.725V19.7477V19.7704V19.7932V19.816V19.8389V19.8618V19.8848V19.9079V19.931V19.9541V19.9773V20.0006V20.0239V20.0472V20.0706V20.0941V20.1176V20.1412V20.1648V20.1885V20.2122V20.2359V20.2598V20.2836V20.3075V20.3315V20.3555V20.3796V20.4037V20.4279V20.4521V20.4764V20.5007V20.525V20.5494V20.5739V20.5984V20.623V20.6476V20.6722V20.6969V20.7217V20.7465V20.7713V20.7962V20.8211V20.8461V20.8711V20.8962V20.9214V20.9465V20.9717V20.997V21.0223V21.0477V21.0731V21.0985V21.124V21.1495V21.1751V21.2007V21.2264V21.2521V21.2779V21.3037V21.3295V21.3554V21.3814V21.4073V21.4334V21.4594V21.4855V21.5117V21.5379V21.5641V21.5904V21.6167V21.6431V21.6695V21.696V21.7224V21.749V21.7756V21.8022V21.8288V21.8555V21.8823V21.9091V21.9359V21.9627V21.9896V22.0166V22.0436V22.0706V22.0977V22.1248V22.1519V22.1791V22.2063V22.2336V22.2609V22.2882V22.3156V22.343V22.3705V22.398V22.4255V22.4531V22.4807V22.5083V22.536V22.5637V22.5915V22.6193V22.6471V22.675V22.7029V22.7308V22.7588V22.7868V22.8149V22.843V22.8711V22.8993V22.9275V22.9557V22.9839V23.0123V23.0406V23.069V23.0974V23.1258V23.1543V23.1828V23.2113V23.2399V23.2685V23.2972V23.3258V23.3545V23.3833V23.4121V23.4409V23.4697V23.4986V23.5275V23.5564V23.5854V23.6144V23.6435V23.6725V23.7016V23.7308V23.7599V23.7891V23.8183V23.8476V23.8769V23.9062V23.9356V23.9649V23.9943V24.0238V24.0532V24.0827V24.1123V24.1418V24.1714V24.201V24.2307V24.2603V24.29V24.3198V24.3495V24.3793V24.4091V24.439V24.4689V24.4988V24.5287V24.5586V24.5886V24.6186V24.6487V24.6787V24.7088V24.7389V24.7691V24.7992V24.8294V24.8596V24.8899V24.9202V24.9505V24.9808V25.0111V25.0415V25.0719V25.1023V25.1328V25.1632V25.1937V25.2243V25.2548V25.2854V25.316V25.3466V25.3772V25.4079V25.4386V25.4693V25.5Z" stroke="#F1E0A8"/>
<circle cx="33" cy="26" r="2" fill="#F1E0A8"/>
<circle cx="2" cy="26" r="2" fill="#F1E0A8"/>
<circle cx="136" cy="26" r="2" fill="#F1E0A8"/>
<circle cx="167" cy="26" r="2" fill="#F1E0A8"/>
<circle cx="84.5" cy="25.5" r="9" stroke="#F1E0A8"/>
<path fill-rule="evenodd" clip-rule="evenodd" d="M63.7837 25.7325C68.5673 18.7166 74.7698 12.3502 81.8869 10.8388C89.0015 9.32798 97.2735 12.6374 106.215 25.7326C97.285 37.9881 89.0129 41.1015 81.8807 39.6816C74.7601 38.264 68.562 32.2994 63.7837 25.7325ZM62.6382 25.7579L62.5844 25.722C67.4382 18.4599 73.9677 11.4982 81.6792 9.86061C89.4793 8.20422 98.2347 12.0275 107.415 25.7215L107.361 25.758L107.407 25.7908C98.2176 38.6407 89.4653 42.2112 81.6854 40.6623C73.982 39.1287 67.4513 32.6046 62.5929 25.7902L62.6382 25.7579Z" fill="#F1E0A8"/>
<path d="M67 14C76.0143 3.81152 88.7589 0.315169 103 14" stroke="#F1E0A8"/>
<path d="M75 42C80.2944 45.1592 86.7084 46.4711 94 42.6868" stroke="#F1E0A8"/>
<path d="M67.6667 13L64.5641 9.85714M69.9231 10.7143L64 4.71429M72.4615 8.71429L69.359 5.28571M75 7L70.7692 1" stroke="#F1E0A8"/>
<path d="M101.425 13L104.45 9.85714M99.225 10.7143L105 4.71429M96.75 8.71429L99.775 5.28571M94 7.28571L98.4 1" stroke="#F1E0A8"/>
<path d="M76 43L74 49" stroke="#F1E0A8"/>
<path d="M93 43L96 49" stroke="#F1E0A8"/>
<path d="M82 45L81 51" stroke="#F1E0A8"/>
<path d="M88 45L89 51" stroke="#F1E0A8"/>
<path d="M77.6667 6L76 1M81 5.11765L80.4444 1.58824" stroke="#F1E0A8"/>
<path d="M91.3333 6L93 1M88 5.11765L88.5556 1.58824" stroke="#F1E0A8"/>
<path d="M85 5V0" stroke="#F1E0A8"/>
</svg>
