<svg width="42" height="38" viewBox="0 0 42 38" fill="none" xmlns="http://www.w3.org/2000/svg">
<path d="M17.5 22.6004L19.1287 27.5526L19.2076 27.7924L19.4474 27.8713L24.3996 29.5L19.4474 31.1287L19.2076 31.2076L19.1287 31.4474L17.5 36.3996L15.8713 31.4474L15.7924 31.2076L15.5526 31.1287L10.6004 29.5L15.5526 27.8713L15.7924 27.7924L15.8713 27.5526L17.5 22.6004Z" stroke="#6A6346"/>
<path d="M35.5 11.6004L36.6337 15.0475L36.7126 15.2874L36.9525 15.3663L40.3996 16.5L36.9525 17.6337L36.7126 17.7126L36.6337 17.9525L35.5 21.3996L34.3663 17.9525L34.2874 17.7126L34.0475 17.6337L30.6004 16.5L34.0475 15.3663L34.2874 15.2874L34.3663 15.0475L35.5 11.6004Z" fill="#6A6346" stroke="#6A6346"/>
<path d="M7.15256 4.65157L7.27824 5.15206L7.77451 5.01065L10.3513 4.27647L8.42707 6.14091L8.05647 6.5L8.42707 6.85909L10.3513 8.72353L7.77451 7.98935L7.27824 7.84794L7.15256 8.34843L6.5 10.9471L5.84744 8.34843L5.72176 7.84794L5.22549 7.98935L2.64873 8.72353L4.57293 6.85909L4.94353 6.5L4.57293 6.14091L2.64873 4.27647L5.22549 5.01065L5.72176 5.15206L5.84744 4.65157L6.5 2.05294L7.15256 4.65157Z" stroke="#6A6346"/>
</svg>
